<svg viewBox="0 0 491 104" xmlns="http://www.w3.org/2000/svg"><g fill="#fff"><path d="M350.7 29c-7 0-14.2.1-21.1.1v45.7h7.3v-14h13.8c21.8-.3 21.7-31.8 0-31.8zm0 25h-13.8V35.7h13.8c12 0 12 18.3 0 18.3z"/><path d="M386.4 41.8c-3.4 0-7.1.8-9.5 5l-.4-4.2h-6.3v32.2h6.7V57.3c0-5.9 4.1-8.8 8.7-8.8 2.5 0 4 .6 5.7 2l3.1-5.9c-1.8-1.7-4.9-2.8-8-2.8zm24.4-.1c-10 0-16.9 7-16.9 16.8 0 10.3 6.8 17 17.4 17 5 0 10.5-1.8 13.8-5.5l-4.4-4.2c-2 2.2-6.1 3.4-9.3 3.4-5.9 0-9.9-3.2-10.5-8.1H427c1.2-13.1-5.8-19.4-16.2-19.4zM401 55.5c1-5.1 5.1-7.8 10-7.8 5.4 0 9.1 2.7 9.5 7.8zm43.5-.1c-4.1-.4-6.9-1.4-7-4.1 0-2.5 2.7-3.9 6.8-3.9 3.2 0 5.9.7 8.5 3l3.8-4.4c-3.6-3.2-7.4-4.3-12.4-4.3-6 0-13.4 2.7-13.4 9.8.1 7.1 7 9.1 13.1 9.6 4.8.5 7.5 1.6 7.4 4.4-.1 3-3.6 4.2-6.9 4.2-3.8-.1-8.3-1.4-11.3-4.8l-3.5 4.8c4.3 4.8 9.5 5.9 14.7 5.9 8.4 0 13.6-4.2 13.7-10.2.2-8.2-7.5-9.5-13.5-10zm31.1 0c-4.1-.4-6.9-1.4-7-4.1 0-2.5 2.7-3.9 6.9-3.9 3.2 0 5.9.7 8.5 3l3.8-4.4c-3.6-3.2-7.4-4.3-12.4-4.3-6 0-13.4 2.7-13.4 9.8.1 7.1 7 9.1 13.1 9.6 4.8.5 7.5 1.6 7.4 4.4-.1 3-3.6 4.2-6.9 4.2-3.8-.1-8.3-1.4-11.3-4.8l-3.5 4.8c4.3 4.8 9.5 5.9 14.7 5.9 8.4 0 13.6-4.2 13.7-10.2.1-8.2-7.7-9.5-13.6-10zM135.5 29h-22.2v45.8h12.9V62.3h9.3c12.2-.1 18.3-7.4 18.3-16.7 0-8.9-6-16.6-18.3-16.6zm0 22.4h-9.3V40.1h9.3c3.5 0 5.4 2.7 5.4 5.7s-1.8 5.6-5.4 5.6zm34.1-5.4-.7-3.5h-10.8v32.2h12V57.9c0-4.3 2.5-6.1 5.6-6.1 2 0 3.5.4 5.4 2l4.8-8.7c-2.1-2.2-5.2-3.4-8.5-3.4-3.1 0-6.1 1.3-7.8 4.3zm34.9-4.2c-9.3 0-18.4 5-18.4 16.9 0 11.7 9.1 16.8 18.4 16.8 9.1 0 18.4-5.1 18.4-16.8 0-11.8-8.9-16.9-18.4-16.9zm0 23.8c-4.2 0-6.7-3.3-6.7-7s2.4-7 6.7-7 6.7 3.3 6.7 7c0 4-2.6 7-6.7 7zm56.9-37.3c-3.4 0-6.8 2-6.8 6.1 0 4 3.4 6 6.8 6 3.3 0 6.7-2 6.7-6 0-4.1-3.4-6.1-6.7-6.1zm11.2.6h11.9v45.8h-11.9zm34.7 12.8c-8.7 0-17.9 5.2-17.9 17 0 11.7 8.6 16.8 18.8 16.8 5.6 0 10.8-1.8 14.7-5.3l-5.9-6.6c-2.1 1.6-4.8 2.6-8.3 2.6-2.6 0-6.3-1.2-7.2-4.1H324c2.7-12.8-5.3-20.4-16.7-20.4zm-5.8 12.6c.8-5.3 11.3-5.1 11.7 0z"/><path d="M255.3 43.1h-12.1v-1.6c0-2.8 1.7-4 3.6-4 1.2 0 2.3.1 3.3.5l2.3-8.3c-2.1-1.1-4.7-1.4-7.2-1.4-6.7 0-13.9 3.7-13.9 13.2v1.6h-5.5v9.1h5.5v22.5h12V52.2h12.1v22.5h12.1V43.1h-8.7z"/><path clip-rule="evenodd" d="M47.6 6.2c25.3 0 45.8 20.5 45.8 45.8S72.9 97.8 47.6 97.8 1.8 77.3 1.8 52 22.3 6.2 47.6 6.2zM25.9 50.4 50 26.3c1.9-1.9 5.1-1.9 7 0l12.3 12.3c1.9 1.9 1.9 5.1 0 7L49.7 65.2l4.3 4.3c2.1 2.1 2.1 5.4 0 7.4l-.6.6c-2 2-5.4 2-7.4 0l-4.3-4.3-13.6-13.6-2.2-2.2c-2-1.9-2-5 0-7zm25.9-9.9L40.1 52.3c-.9.9-.9 2.3 0 3.2s2.3.9 3.2 0l11.8-11.8c.9-.9.9-2.3 0-3.2-.9-.9-2.4-.9-3.3 0z" fill-rule="evenodd"/></g></svg>